<svg width="10.143mm" height="11.778mm" version="1.1" viewBox="0 0 10.143 11.778" xmlns="http://www.w3.org/2000/svg">
 <g transform="translate(461.03 -65.141)">
  <text x="17.48489" y="90.59935" fill="#2d3950" font-family="'Helvetica CE 35 Thin'" font-size="6.0845px" letter-spacing="0px" stroke="#2d3950" stroke-width=".307" word-spacing="0px" style="line-height:1.25" xml:space="preserve"><tspan x="17.48489" y="90.59935" fill="#2d3950" stroke="#2d3950" stroke-width=".307"/></text>
  <g transform="matrix(.70275 0 0 .70275 -82.099 29.372)">
   <text x="223.89648" y="47.215233" fill="#333333" font-family="Laksaman" font-size="6.024px" font-weight="bold" letter-spacing="0px" stroke-width=".26458" word-spacing="0px" style="line-height:1.25" xml:space="preserve"><tspan x="223.89648" y="47.215233" fill="#333333" font-family="Laksaman" font-size="6.024px" font-weight="bold" stroke-width=".26458"/></text>
  </g>
  <g transform="translate(-13.394 3.5192)">
   <text x="89.078468" y="66.737831" fill="#333333" font-family="Laksaman" font-size="4.2333px" font-weight="bold" letter-spacing="0px" stroke-width=".18594" word-spacing="0px" style="line-height:1.25" xml:space="preserve"><tspan x="89.078468" y="66.737831" fill="#333333" font-family="Laksaman" font-size="4.2333px" font-weight="bold" stroke-width=".18594"/></text>
  </g>
  <g transform="translate(-13.394 5.6315)"></g>
  <text transform="scale(.99955 1.0005)" x="-267.83972" y="272.15771" font-family="'Helvetica CE 35 Thin'" font-size="4.2934px" letter-spacing="0px" stroke-width=".28028" word-spacing="0px" style="line-height:1.25" xml:space="preserve"><tspan x="-267.83972" y="272.15771" stroke-width=".28028">Powered by ProdigalBit</tspan></text>
  <g>
   <rect x="-322.47" y="104.13" width="95.98" height="10.151" rx="2.5087" ry="2.866" fill="#fff" stroke="#ccc" stroke-linecap="round" stroke-linejoin="round" stroke-width=".21045" style="paint-order:normal"/>
   <path d="m-315.2 111.86c-0.0436-0.0128-0.0838-0.0351-0.12835-0.0709-0.0216-0.0174-0.40622-0.40196-0.85447-0.85428l-0.81499-0.8224-0.0464 0.0256c-0.20326 0.11207-0.47392 0.19343-0.7404 0.22257-0.1244 0.0137-0.39634 0.01-0.50632-7e-3 -0.20509-0.031-0.39358-0.0889-0.56228-0.17278-0.18832-0.0936-0.30214-0.17668-0.44955-0.32795-0.27071-0.2779-0.4292-0.55393-0.52017-0.906-0.11164-0.43236-0.06-0.9245 0.13928-1.326 0.32543-0.65566 0.98072-1.0649 1.7051-1.0649 0.43636 0 0.842 0.14177 1.1837 0.41371 0.0846 0.0673 0.24303 0.22714 0.31045 0.31315 0.21419 0.27324 0.34445 0.58538 0.39442 0.94502 0.0161 0.11455 0.0158 0.37482-1.8e-4 0.49026-0.0204 0.14837-0.0564 0.29262-0.10603 0.42781-0.0237 0.0648-0.10284 0.23373-0.13913 0.29709l-0.0181 0.0318 0.83167 0.84043c0.8533 0.86226 0.85892 0.86828 0.88541 0.94476 0.0332 0.0958 5e-3 0.2003-0.0823 0.31101-0.0516 0.0652-0.19217 0.20167-0.24134 0.23447-0.0823 0.0547-0.17035 0.0746-0.24009 0.0541zm-2.5878-2.156c0.46722-0.0787 0.84349-0.40284 0.98998-0.85279 0.0486-0.1494 0.067-0.3013 0.0575-0.47592-0.0233-0.43722-0.29065-0.84213-0.68759-1.042-0.37515-0.18887-0.82625-0.17323-1.1874 0.0411-0.31055 0.18433-0.52309 0.48792-0.59738 0.85324-0.0142 0.0681-0.0156 0.0934-0.0151 0.23548 3.1e-4 0.1482 9.5e-4 0.16505 0.0185 0.24418 0.0559 0.26157 0.17162 0.47386 0.35689 0.65468 0.10947 0.10684 0.20772 0.17592 0.33802 0.23766 0.11726 0.0555 0.26806 0.0988 0.39477 0.11324 0.0741 8e-3 0.25806 4e-3 0.33177-9e-3z" fill="#999" stroke-width="1.0522"/>
   <text transform="scale(.99575 1.0043)" x="-310.42255" y="110.30034" fill="#999999" font-family="Laksaman" font-size="4.4059px" letter-spacing="0px" stroke-width=".2784" word-spacing="0px" style="line-height:1.25" xml:space="preserve"><tspan x="-310.42255" y="110.30034" fill="#999999" font-family="Laksaman" stroke-width=".2784">Buscar Paciente ...</tspan></text>
   <rect x="-467.7" y="104.18" width="33.534" height="10.067" ry="3.6898" fill="#095fc3"/>
  </g>
  <text transform="scale(.99955 1.0005)" x="-463.8844" y="111.09944" fill="#ffffff" font-family="sans-serif" font-size="4.9536px" font-weight="bold" letter-spacing="0px" stroke-width=".3396" word-spacing="0px" style="line-height:1.25" xml:space="preserve"><tspan x="-463.8844" y="111.09944" fill="#ffffff" font-family="sans-serif" font-size="4.9536px" font-weight="bold" stroke-width=".3396">+ anadir</tspan></text>
  <rect x="-516.44" y="97.086" width="27.837" height="176.04" ry="6.7535" fill="#202b3c" stroke-linecap="round" stroke-linejoin="round" stroke-width=".29944"/>
  <rect x="-516.44" y="143.54" width="27.837" height="17.827" fill="#008080" stroke-linecap="square" stroke-linejoin="round" stroke-width=".6567"/>
  <g transform="matrix(1.2759 0 0 1.2771 -565.45 58.744)" stroke="#fff">
   <path d="m45.12 93.25v8.7496h7.4762v-7.0662l-1.4183-1.6834z" fill="#202b3c" stroke-linecap="round" stroke-linejoin="round" stroke-width=".47294"/>
   <g transform="matrix(1.0351 0 0 1.0351 76.945 36.438)" fill="#2d3950" stroke-width=".78338">
    <g stroke-width=".78338">
     <path d="m-29.974 59.965 1.7122-1.7122 1.6199 0.93525 2.358-2.1174" fill="none" stroke="#fff" stroke-linecap="round" stroke-width=".46467"/>
     <g transform="translate(-.28455)" fill="#fff" stroke="none">
      <rect x="-25.015" y="59.168" width=".80587" height="3.402" rx="0" ry="0"/>
      <rect x="-26.133" y="60.476" width=".80587" height="2.0939" rx="0" ry="0"/>
      <rect x="-27.251" y="61.025" width=".80587" height="1.5449" rx="0" ry="0"/>
      <rect x="-28.37" y="60.083" width=".80587" height="2.4869" rx="0" ry="0"/>
      <rect x="-29.488" y="60.529" width=".80587" height="2.0407" rx="0" ry="0"/>
     </g>
    </g>
   </g>
   <path d="m51.112 93.264v1.6689h1.4845z" fill="#202b3c" stroke-linejoin="round" stroke-width=".28985"/>
  </g>
  <g transform="matrix(1.2759 0 0 1.2771 -565.45 58.744)">
   <circle cx="48.858" cy="121.96" r="4.4786" fill="none" stroke="#fff" stroke-linecap="square" stroke-linejoin="round" stroke-width=".76095"/>
   <text x="47.301201" y="123.8709" font-family="'Helvetica CE 35 Thin'" font-size="5.651px" letter-spacing="0px" stroke="#ffffff" stroke-width=".36853" word-spacing="0px" style="line-height:1.25" xml:space="preserve"><tspan x="47.301201" y="123.8709" stroke="#ffffff" stroke-width=".36853">$</tspan></text>
  </g>
  <g transform="matrix(1.2759 0 0 1.2771 -566.72 58.744)" stroke-width=".78338">
   <g>
    <text x="42.31805" y="40.605675" fill="#ffffff" font-family="sans-serif" font-size="3.8806px" letter-spacing=".2933px" stroke="#ffffff" stroke-width=".2171" word-spacing="0px" style="line-height:1.25" xml:space="preserve"><tspan x="42.31805" y="40.605675">Dra. </tspan><tspan x="42.31805" y="45.456375">Jocelyn </tspan><tspan x="42.31805" y="50.307076">Arias</tspan><tspan x="42.31805" y="55.157776">Alarcon</tspan></text>
    <path d="m55.117 57.191 3.5376 2e-6 -1.7688 2.4127z" fill="#fff"/>
   </g>
  </g>
  <g transform="matrix(1.2759 0 0 1.2771 -565.45 58.744)" fill="#008080" stroke="#fff" stroke-linecap="round" stroke-linejoin="round" stroke-width=".65843">
   <path d="m47.441 74.344c-1.3141 0-2.3723 0.78641-2.3723 1.7631v0.58579a5.4941 4.0832 0 0 0 3.7889 1.1285 5.4941 4.0832 0 0 0 3.7893-1.1285v-0.58579c0-0.97667-1.0582-1.7631-2.3723-1.7631z"/>
   <circle cx="48.858" cy="70.976" r="2.0487"/>
  </g>
  <g stroke-linecap="square" stroke-linejoin="round" stroke-width="1.0542">
   <rect x="-467.7" y="131.34" width="241.34" height="10.934" fill="#f2f2f2"/>
   <rect x="-467.7" y="142.27" width="241.34" height="10.934" fill="#fff"/>
   <rect x="-467.7" y="153.21" width="241.34" height="10.934" fill="#f2f2f2"/>
   <rect x="-467.7" y="164.14" width="241.34" height="10.934" fill="#fff"/>
   <rect x="-467.7" y="175.07" width="241.34" height="10.934" fill="#f2f2f2"/>
   <rect x="-467.7" y="186.01" width="241.34" height="10.934" fill="#fff"/>
   <rect x="-467.7" y="196.94" width="241.34" height="10.934" fill="#f2f2f2"/>
   <rect x="-467.7" y="207.88" width="241.34" height="10.934" fill="#fff"/>
   <rect x="-467.7" y="218.81" width="241.34" height="10.934" fill="#f2f2f2"/>
   <rect x="-467.7" y="229.74" width="241.34" height="10.934" fill="#fff"/>
   <rect x="-467.7" y="240.68" width="241.34" height="10.934" fill="#f2f2f2"/>
   <rect x="-474.82" y="251.61" width="241.34" height="10.934" fill="#fff"/>
  </g>
  <g fill="none" stroke="#800000" stroke-linecap="square" stroke-linejoin="round" stroke-width="1.3819">
   <rect x="-525.78" y="95.89" width="46.535" height="178.34"/>
   <rect x="-479.25" y="95.89" width="126.75" height="26.64"/>
   <rect x="-479.25" y="122.53" width="264.45" height="136.37"/>
   <rect x="-479.25" y="258.9" width="264.45" height="15.358"/>
   <rect x="-352.5" y="95.89" width="137.7" height="26.64"/>
  </g>
  <g transform="translate(47.155 -112.39)">
   <g transform="matrix(1.2759 0 0 1.2771 -565.45 58.744)" stroke="#fff">
    <path d="m45.12 93.25v8.7496h7.4762v-7.0662l-1.4183-1.6834z" fill="none" stroke-linecap="round" stroke-linejoin="round" stroke-width=".47294"/>
    <g transform="matrix(1.0351 0 0 1.0351 76.945 36.438)" fill="#2d3950" stroke-width=".78338">
     <g stroke-width=".78338">
      <path d="m-29.974 59.965 1.7122-1.7122 1.6199 0.93525 2.358-2.1174" fill="none" stroke="#fff" stroke-linecap="round" stroke-width=".46467"/>
      <g transform="translate(-.28455)" fill="#fff" stroke="none">
       <rect x="-25.015" y="59.168" width=".80587" height="3.402" rx="0" ry="0"/>
       <rect x="-26.133" y="60.476" width=".80587" height="2.0939" rx="0" ry="0"/>
       <rect x="-27.251" y="61.025" width=".80587" height="1.5449" rx="0" ry="0"/>
       <rect x="-28.37" y="60.083" width=".80587" height="2.4869" rx="0" ry="0"/>
       <rect x="-29.488" y="60.529" width=".80587" height="2.0407" rx="0" ry="0"/>
      </g>
     </g>
    </g>
    <path d="m51.112 93.264v1.6689h1.4845z" fill="none" stroke-linejoin="round" stroke-width=".28985"/>
   </g>
  </g>
 </g>
</svg>
